HIERARCHY
ROOT Hips
{
	OFFSET 0.00000 0.00000 0.00000
	CHANNELS 6 Xposition Yposition Zposition Zrotation Yrotation Xrotation 
	JOINT LHipJoint
	{
		OFFSET 0 0 0
		CHANNELS 3 Zrotation Yrotation Xrotation
		JOINT LeftUpLeg
		{
			OFFSET 1.38691 -1.89057 0.78360
			CHANNELS 3 Zrotation Yrotation Xrotation
			JOINT LeftLeg
			{
				OFFSET 2.59731 -7.13606 0.00000
				CHANNELS 3 Zrotation Yrotation Xrotation
				JOINT LeftFoot
				{
					OFFSET 2.70078 -7.42033 0.00000
					CHANNELS 3 Zrotation Yrotation Xrotation
					JOINT LeftToeBase
					{
						OFFSET 0.16751 -0.46024 2.68862
						CHANNELS 3 Zrotation Yrotation Xrotation
						End Site
						{
							OFFSET 0.00000 -0.00000 1.37057
						}
					}
				}
			}
		}
	}
	JOINT RHipJoint
	{
		OFFSET 0 0 0
		CHANNELS 3 Zrotation Yrotation Xrotation
		JOINT RightUpLeg
		{
			OFFSET -1.38190 -1.89056 0.78359
			CHANNELS 3 Zrotation Yrotation Xrotation
			JOINT RightLeg
			{
				OFFSET -2.57785 -7.08258 0.00000
				CHANNELS 3 Zrotation Yrotation Xrotation
				JOINT RightFoot
				{
					OFFSET -2.77908 -7.63547 0.00000
					CHANNELS 3 Zrotation Yrotation Xrotation
					JOINT RightToeBase
					{
						OFFSET -0.17921 -0.49237 2.62360
						CHANNELS 3 Zrotation Yrotation Xrotation
						End Site
						{
							OFFSET -0.00000 -0.00000 1.34085
						}
					}
				}
			}
		}
	}
	JOINT LowerBack
	{
		OFFSET 0 0 0
		CHANNELS 3 Zrotation Yrotation Xrotation
		JOINT Spine
		{
			OFFSET -0.10749 2.04110 -0.22549
			CHANNELS 3 Zrotation Yrotation Xrotation
			JOINT Spine1
			{
				OFFSET 0.01213 2.05840 0.00691
				CHANNELS 3 Zrotation Yrotation Xrotation
				JOINT Neck
				{
					OFFSET 0 0 0
					CHANNELS 3 Zrotation Yrotation Xrotation
					JOINT Neck1
					{
						OFFSET 0.06585 1.81215 0.35449
						CHANNELS 3 Zrotation Yrotation Xrotation
						JOINT Head
						{
							OFFSET -0.04315 1.87555 -0.27307
							CHANNELS 3 Zrotation Yrotation Xrotation
							End Site
							{
								OFFSET -0.01775 1.89740 -0.13294
							}
						}
					}
				}
				JOINT LeftShoulder
				{
					OFFSET 0 0 0
					CHANNELS 3 Zrotation Yrotation Xrotation
					JOINT LeftArm
					{
						OFFSET 2.98012 1.63606 0.28888
						CHANNELS 3 Zrotation Yrotation Xrotation
						JOINT LeftForeArm
						{
							OFFSET 5.59864 -0.00000 -0.00000
							CHANNELS 3 Zrotation Yrotation Xrotation
							JOINT LeftHand
							{
								OFFSET 3.59542 -0.00000 -0.00000
								CHANNELS 3 Zrotation Yrotation Xrotation
								JOINT LeftFingerBase
								{
									OFFSET 0 0 0
									CHANNELS 3 Zrotation Yrotation Xrotation
									JOINT LeftHandIndex1
									{
										OFFSET 0.57201 -0.00000 -0.00000
										CHANNELS 3 Zrotation Yrotation Xrotation
										End Site
										{
											OFFSET 0.46117 -0.00000 -0.00000
										}
									}
								}
								JOINT LThumb
								{
									OFFSET 0 0 0
									CHANNELS 3 Zrotation Yrotation Xrotation
									End Site
									{
										OFFSET 0.46821 -0.00000 0.46821
									}
								}
							}
						}
					}
				}
				JOINT RightShoulder
				{
					OFFSET 0 0 0
					CHANNELS 3 Zrotation Yrotation Xrotation
					JOINT RightArm
					{
						OFFSET -3.08694 1.53706 0.36335
						CHANNELS 3 Zrotation Yrotation Xrotation
						JOINT RightForeArm
						{
							OFFSET -5.80940 -0.00000 -0.00000
							CHANNELS 3 Zrotation Yrotation Xrotation
							JOINT RightHand
							{
								OFFSET -3.66953 -0.00000 -0.00000
								CHANNELS 3 Zrotation Yrotation Xrotation
								JOINT RightFingerBase
								{
									OFFSET 0 0 0
									CHANNELS 3 Zrotation Yrotation Xrotation
									JOINT RightHandIndex1
									{
										OFFSET -0.57843 -0.00000 -0.00000
										CHANNELS 3 Zrotation Yrotation Xrotation
										End Site
										{
											OFFSET -0.46635 -0.00000 -0.00000
										}
									}
								}
								JOINT RThumb
								{
									OFFSET 0 0 0
									CHANNELS 3 Zrotation Yrotation Xrotation
									End Site
									{
										OFFSET -0.47347 -0.00000 0.47347
									}
								}
							}
						}
					}
				}
			}
		}
	}
}
MOTION
Frames: 16
Frame Time: .0083333
-13.5545 18.0268 -38.6491 0 0 0 0 0 0 -21 0 0 0 0 0 0 0 0 0 0 0 0 0 0 21 0 0 0 0 0 0 0 0 0 0 0 0 0 0 0 0 0 0 0 0 0 0 -16 0 0 21 0 0 11 0 0 0 -8 0 0 0 0 0 0 0 0 0 0 0 0 0 0 0 0 0 0 0 0 8 0 0 0 0 0 0 0 0 0 0 0 0 0 0 0 0 0
-13.5545 18.0268 -38.6491 6.4810 37.8006 11.6903 0.0000 0.0000 0.0000 -7.8975 3.8200 -3.5665 13.5061 18.9573 70.6901 -0.7748 -18.7831 -4.6573 0.3485 3.7931 10.4954 0.0000 0.0000 0.0000 11.3269 13.3856 -40.0929 -13.4232 -18.9297 70.4348 -3.9138 17.2902 -36.1863 -0.9589 6.2353 -17.4686 -6.1695 -1.9970 17.8603 -1.9321 -4.0105 0.9185 2.3910 -1.6912 -8.7453 1.1126 -0.4685 -14.9191 3.0920 -1.7877 35.2711 0.8158 -0.0637 14.7225 0.0000 0.0000 0.0000 -92.6693 -41.9277 69.7371 56.0795 -55.1714 -31.1002 -0.0000 0.0000 -25.8042 39.0061 1.5760 1.2761 -7.1250 0.0000 -0.0000 9.9665 31.9040 -3.2364 0.0000 0.0000 0.0000 49.5989 0.7830 34.3200 -80.0617 59.6235 -51.4041 0.0000 -0.0000 -15.6988 -47.9278 -0.9981 1.1055 7.1250 -0.0000 -0.0000 -16.8967 -31.1760 -5.9401
-13.5851 18.0946 -38.2291 6.5323 39.2517 11.8091 0.0000 0.0000 0.0000 -8.2725 3.8086 -6.0108 13.9742 19.1062 72.1258 -0.8643 -20.1004 -5.3538 0.2290 3.0799 8.5014 0.0000 0.0000 0.0000 11.7278 12.9329 -39.4393 -13.1373 -18.8312 69.5513 -3.9968 17.0690 -36.5433 -0.7733 5.6148 -15.6706 -6.0484 -1.9051 17.7896 -1.8565 -3.8483 0.9652 2.3616 -1.6202 -8.6695 5.8940 -0.6796 -16.9872 -4.6510 -0.7826 38.5656 -3.2371 0.0394 16.7438 0.0000 0.0000 0.0000 -93.5050 -40.5140 71.0681 56.2331 -55.2196 -31.2264 -0.0000 0.0000 -25.3470 39.1285 1.2560 1.0216 -7.1250 0.0000 -0.0000 10.0248 31.4994 -3.3549 0.0000 0.0000 0.0000 50.2447 -0.4448 34.2907 -80.8448 59.6809 -52.0799 0.0000 -0.0000 -14.6899 -47.4946 -0.7381 0.8052 7.1250 -0.0000 -0.0000 -16.4976 -30.8076 -5.9411
-13.6140 18.1636 -37.8042 6.7857 40.7769 11.9604 0.0000 0.0000 0.0000 -8.9010 3.7830 -8.1129 14.2684 19.1934 73.0225 -0.8318 -21.0634 -7.0706 0.1098 2.1365 5.8832 0.0000 0.0000 0.0000 12.0061 12.5320 -38.6524 -12.8466 -18.7261 68.6483 -4.1731 16.4774 -37.2899 -0.6954 5.3308 -14.8546 -6.0656 -1.8292 17.8362 -1.8158 -3.7453 1.0247 2.3913 -1.5705 -8.6339 5.6102 -1.0576 -17.0457 -4.3533 -1.3587 38.6146 -3.1575 -0.1877 16.7427 -0.0000 -0.0000 0.0000 -94.2700 -39.1861 72.2930 56.1735 -55.2009 -31.1775 -0.0000 0.0000 -25.0613 38.5401 1.6811 1.3387 -7.1250 0.0000 -0.0000 9.6064 32.0313 -3.0867 -0.0000 -0.0000 0.0000 50.8679 -1.7382 34.4550 -81.6559 59.7353 -52.7802 0.0000 -0.0000 -14.2346 -47.5599 0.0593 -0.0649 7.1250 -0.0000 -0.0000 -16.3571 -29.6739 -6.3500
-13.6418 18.2306 -37.3693 7.0061 42.2614 11.9301 0.0000 0.0000 0.0000 -9.5675 3.8544 -9.8865 14.4730 19.2513 73.6440 -0.6332 -21.5829 -9.7698 0.0117 0.6970 1.9154 0.0000 0.0000 0.0000 12.3535 12.3581 -37.5444 -12.5493 -18.6133 67.7195 -4.3985 15.8459 -38.2569 -0.5988 4.9537 -13.7765 -6.1034 -1.7643 17.9254 -1.8043 -3.6615 1.1516 2.4058 -1.5321 -8.5472 5.3177 -1.3579 -17.2109 -3.9889 -1.8450 38.7727 -3.0379 -0.3656 16.8416 -0.0000 -0.0000 0.0000 -94.7047 -37.7391 73.2811 56.0737 -55.1695 -31.0955 -0.0000 0.0000 -24.7640 38.7100 1.4269 1.1433 -7.1250 0.0000 -0.0000 9.7125 31.7125 -3.1972 -0.0000 -0.0000 0.0000 51.5533 -3.0342 34.7076 -82.8140 59.8040 -53.7808 0.0000 -0.0000 -13.5525 -47.5924 -0.1575 0.1724 7.1250 -0.0000 -0.0000 -16.4336 -29.9814 -6.2559
-13.6753 18.3046 -36.9408 7.3471 44.9724 11.9573 0.0000 0.0000 0.0000 -10.0989 2.6355 -11.6781 14.5212 19.2646 73.7901 -0.2458 -21.3635 -13.0654 0.0046 -0.4376 -1.2025 0.0000 0.0000 0.0000 12.7663 10.9031 -36.6610 -12.2421 -18.4911 66.7543 -4.5852 15.3315 -39.0567 -0.5082 4.5698 -12.6856 -5.8782 -2.1002 18.1745 -1.7160 -4.0514 1.3442 2.4746 -1.7291 -8.4501 4.9126 -1.7140 -17.1962 -3.3732 -2.4718 38.6746 -2.7969 -0.5909 16.7621 0.0000 -0.0000 0.0000 -95.1883 -36.5032 74.2765 55.5325 -54.9969 -30.6517 -0.0000 0.0000 -24.9346 39.0357 0.6905 0.5598 -7.1250 0.0000 -0.0000 9.8816 30.7817 -3.4784 0.0000 -0.0000 0.0000 52.2116 -4.5069 34.6763 -83.8565 59.8569 -54.6821 0.0000 -0.0000 -13.0387 -47.5722 0.3414 -0.3735 7.1250 -0.0000 -0.0000 -16.2991 -29.2723 -6.4887
-13.7067 18.3624 -36.5080 7.5569 47.0014 12.0383 0.0000 0.0000 0.0000 -10.7085 2.1538 -13.3396 14.5001 19.2588 73.7261 0.1143 -21.2608 -15.8497 0.0601 -1.5812 -4.3497 0.0000 0.0000 0.0000 13.1722 10.1884 -35.8853 -11.9623 -18.3747 65.8693 -4.7847 14.7955 -39.9105 -0.4343 4.2288 -11.7211 -5.7989 -2.2039 18.2036 -1.6309 -4.1551 1.4613 2.5446 -1.7848 -8.3278 4.9477 -2.0346 -17.3645 -3.5020 -2.9053 38.9275 -2.9516 -0.7635 16.9055 -0.0000 0.0000 0.0000 -95.5418 -35.2390 75.2035 55.1477 -54.8718 -30.3368 -0.0000 0.0000 -24.9177 39.1084 0.4244 0.3450 -7.1250 0.0000 -0.0000 9.9056 30.4437 -3.5684 -0.0000 0.0000 0.0000 52.9212 -5.8689 34.7151 -84.7626 59.8961 -55.4658 0.0000 -0.0000 -12.3943 -47.5125 0.6318 -0.6898 7.1250 -0.0000 -0.0000 -16.1852 -28.8614 -6.6051
-13.7372 18.4172 -36.0702 7.7473 49.1150 12.1286 0.0000 0.0000 0.0000 -11.2965 1.6167 -14.8473 14.3655 19.2212 73.3177 0.5538 -20.8780 -18.7689 0.1688 -2.6472 -7.2979 0.0000 0.0000 0.0000 13.6034 9.4729 -35.1469 -11.6920 -18.2574 65.0091 -5.0003 14.2254 -40.8308 -0.3782 3.9499 -10.9357 -5.7179 -2.3376 18.1902 -1.5328 -4.2948 1.5678 2.6336 -1.8583 -8.1900 4.7552 -2.3650 -17.4051 -3.2461 -3.4225 39.0255 -2.8994 -0.9547 16.9467 0.0000 0.0000 0.0000 -95.7975 -34.0292 76.0534 54.6289 -54.7000 -29.9129 -0.0000 0.0000 -24.9731 39.2577 0.1393 0.1139 -7.1250 0.0000 -0.0000 9.9863 30.0802 -3.6864 0.0000 0.0000 0.0000 53.6640 -7.2643 34.7365 -85.6212 59.9274 -56.2088 0.0000 -0.0000 -11.7670 -47.4693 0.8529 -0.9296 7.1250 -0.0000 -0.0000 -16.1006 -28.5489 -6.6926
-13.7659 18.4686 -35.6285 7.9222 51.3340 12.2093 0.0000 0.0000 0.0000 -11.8491 0.9941 -16.1698 14.1352 19.1545 72.6170 1.0487 -20.3172 -21.7385 0.3137 -3.6003 -9.9548 0.0000 0.0000 0.0000 14.0563 8.7062 -34.4392 -11.4373 -18.1425 64.1937 -5.2244 13.6919 -41.7836 -0.3298 3.6911 -10.2092 -5.6162 -2.5098 18.1708 -1.4251 -4.4808 1.6623 2.7316 -1.9543 -8.0591 4.5774 -2.6834 -17.4351 -2.9953 -3.9232 39.1607 -2.8506 -1.1353 17.0098 0.0000 -0.0000 0.0000 -95.9661 -32.8733 76.8317 53.9877 -54.4825 -29.3903 -0.0000 0.0000 -25.0644 39.3829 -0.0810 -0.0665 -7.1250 0.0000 -0.0000 10.0554 29.7983 -3.7813 0.0000 -0.0000 0.0000 54.4468 -8.6991 34.7228 -86.4163 59.9514 -56.8969 0.0000 -0.0000 -11.1344 -47.4074 0.9648 -1.0493 7.1250 -0.0000 -0.0000 -16.0279 -28.3927 -6.7221
-13.7923 18.5173 -35.1827 8.0926 53.6303 12.3049 0.0000 0.0000 0.0000 -12.3702 0.3344 -17.3156 13.8110 19.0557 71.6265 1.5920 -19.5884 -24.7455 0.4742 -4.4163 -12.2509 0.0000 0.0000 0.0000 14.5154 7.9146 -33.7749 -11.1905 -18.0271 63.3987 -5.4527 13.1473 -42.7482 -0.2917 3.4733 -9.5993 -5.5088 -2.7099 18.1260 -1.3101 -4.7019 1.7378 2.8408 -2.0671 -7.9320 4.4095 -2.9947 -17.4422 -2.7477 -4.4133 39.3224 -2.8035 -1.3086 17.0857 -0.0000 0.0000 0.0000 -96.0667 -31.7832 77.5495 53.2424 -54.2224 -28.7846 -0.0000 0.0000 -25.1647 39.4354 -0.1805 -0.1484 -7.1250 0.0000 -0.0000 10.0831 29.6707 -3.8233 -0.0000 0.0000 0.0000 55.2702 -10.1793 34.6771 -87.1472 59.9692 -57.5296 0.0000 -0.0000 -10.5606 -47.3207 1.0667 -1.1566 7.1250 -0.0000 -0.0000 -15.9393 -28.2520 -6.7376
-13.8152 18.5642 -34.7322 8.2677 55.9584 12.4235 0.0000 0.0000 0.0000 -12.8672 -0.3023 -18.2917 13.4172 18.9277 70.4164 2.2007 -18.5140 -27.8620 0.6674 -5.2244 -14.5496 0.0000 0.0000 0.0000 14.9663 7.1461 -33.1401 -10.9523 -17.9116 62.6264 -5.6859 12.5885 -43.7280 -0.2628 3.2980 -9.1095 -5.4169 -2.9236 18.0410 -1.1915 -4.9427 1.7964 2.9639 -2.1893 -7.7980 4.2411 -3.2968 -17.4276 -2.4954 -4.8897 39.5089 -2.7520 -1.4737 17.1747 0.0000 0.0000 0.0000 -96.1037 -30.7603 78.2031 52.4148 -53.9242 -28.1145 -0.0000 0.0000 -25.2442 39.3940 -0.1552 -0.1275 -7.1250 0.0000 -0.0000 10.0542 29.7036 -3.8040 0.0000 0.0000 0.0000 56.1317 -11.6940 34.6022 -87.8128 59.9819 -58.1059 0.0000 -0.0000 -10.0641 -47.2606 1.0600 -1.1469 7.1250 -0.0000 -0.0000 -15.8960 -28.2642 -6.7131
-13.8343 18.6092 -34.2791 8.4689 58.3535 12.5598 0.0000 0.0000 0.0000 -13.3451 -0.9505 -19.0682 12.9890 18.7782 69.0913 2.8473 -17.0941 -30.9906 0.8840 -5.9936 -16.7658 0.0000 0.0000 0.0000 15.4018 6.3502 -32.5298 -10.7263 -17.7985 61.8896 -5.9219 12.0046 -44.7136 -0.2403 3.1545 -8.7092 -5.3120 -3.1691 17.9665 -1.0763 -5.2255 1.8371 3.0858 -2.3313 -7.6870 4.0705 -3.5901 -17.3864 -2.2378 -5.3523 39.7164 -2.6950 -1.6310 17.2736 0.0000 -0.0000 0.0000 -96.0825 -29.7922 78.7823 51.5361 -53.5965 -27.4057 -0.0000 0.0000 -25.2812 39.2658 -0.0521 -0.0426 -7.1250 0.0000 -0.0000 9.9679 29.8367 -3.7383 0.0000 -0.0000 0.0000 57.0287 -13.2453 34.4993 -88.4129 59.9905 -58.6256 0.0000 -0.0000 -9.6444 -47.1690 1.0510 -1.1335 7.1250 -0.0000 -0.0000 -15.8297 -28.2811 -6.6764
-13.8499 18.6521 -33.8240 8.7422 60.7865 12.7553 0.0000 0.0000 0.0000 -13.8169 -1.5763 -19.6476 12.5577 18.6166 67.7460 3.5011 -15.3378 -34.0396 1.1328 -6.7598 -19.0056 0.0000 0.0000 0.0000 15.7925 5.5462 -31.9545 -10.5180 -17.6910 61.2061 -6.1561 11.3888 -45.6877 -0.2236 3.0437 -8.4003 -5.2321 -3.4352 17.8921 -0.9660 -5.5419 1.8679 3.2231 -2.4886 -7.5818 3.8987 -3.8755 -17.3186 -1.9835 -5.7998 39.9284 -2.6357 -1.7819 17.3730 -0.0000 -0.0000 0.0000 -96.0170 -28.8892 79.2870 50.6251 -53.2445 -26.6742 -0.0000 0.0000 -25.2648 39.0656 0.0695 0.0564 -7.1250 0.0000 -0.0000 9.8274 29.9936 -3.6468 -0.0000 -0.0000 0.0000 57.9505 -14.8180 34.3602 -88.9699 59.9960 -59.1079 0.0000 -0.0000 -9.3400 -47.1084 0.9683 -1.0422 7.1250 -0.0000 -0.0000 -15.8033 -28.4005 -6.6178
-13.8621 18.6917 -33.3674 9.0795 63.2291 13.0291 0.0000 0.0000 0.0000 -14.2648 -2.1971 -20.0418 12.1507 18.4536 66.4658 4.1151 -13.4493 -36.8585 1.3916 -7.4634 -21.0958 0.0000 0.0000 0.0000 16.1428 4.7878 -31.4334 -10.3324 -17.5926 60.5936 -6.3885 10.7376 -46.6522 -0.2123 2.9663 -8.1848 -5.1740 -3.7164 17.7909 -0.8566 -5.8822 1.8854 3.3736 -2.6574 -7.4718 3.7290 -4.1517 -17.2272 -1.7404 -6.2286 40.1381 -2.5772 -1.9262 17.4690 -0.0000 0.0000 0.0000 -95.9105 -28.0387 79.7014 49.7222 -52.8828 -25.9524 -0.0000 0.0000 -25.1753 38.7947 0.1949 0.1567 -7.1250 0.0000 -0.0000 9.6313 30.1553 -3.5344 -0.0000 0.0000 0.0000 58.8824 -16.3969 34.1930 -89.4758 59.9990 -59.5460 0.0000 -0.0000 -9.1243 -47.0361 0.8897 -0.9552 7.1250 -0.0000 -0.0000 -15.7672 -28.5146 -6.5571
-13.8711 18.7270 -32.9101 9.4722 65.6556 13.3857 0.0000 0.0000 0.0000 -14.6638 -2.8223 -20.2538 11.7828 18.2973 65.2985 4.6559 -11.6715 -39.3314 1.6352 -8.0608 -22.8988 0.0000 0.0000 0.0000 16.4467 4.0918 -30.9836 -10.1746 -17.5068 60.0702 -6.6090 10.0889 -47.5650 -0.2052 2.9164 -8.0462 -5.1349 -4.0083 17.6557 -0.7462 -6.2403 1.8865 3.5357 -2.8349 -7.3564 3.5664 -4.4206 -17.1060 -1.5170 -6.6397 40.3336 -2.5236 -2.0660 17.5521 -0.0000 -0.0000 0.0000 -95.7625 -27.2310 80.0132 48.8494 -52.5208 -25.2582 -0.0000 0.0000 -25.0181 38.5065 0.2713 0.2159 -7.1250 0.0000 -0.0000 9.4150 30.2542 -3.4305 -0.0000 -0.0000 0.0000 59.8130 -17.9633 34.0031 -89.9212 60.0000 -59.9318 0.0000 -0.0000 -8.9661 -46.9499 0.7869 -0.8422 7.1250 -0.0000 -0.0000 -15.7259 -28.6630 -6.4810
-13.8773 18.7582 -32.4523 9.9199 68.0467 13.8069 0.0000 0.0000 0.0000 -14.9868 -3.4818 -20.2494 11.4546 18.1505 64.2494 5.1087 -10.1418 -41.3968 1.8436 -8.5325 -24.3436 0.0000 0.0000 0.0000 16.7024 3.5334 -30.5468 -10.0448 -17.4349 59.6379 -6.8129 9.4707 -48.4080 -0.1992 2.8740 -7.9283 -5.1165 -4.3080 17.5118 -0.6372 -6.6137 1.8753 3.7085 -3.0194 -7.2449 3.4147 -4.6772 -16.9591 -1.3147 -7.0267 40.5153 -2.4753 -2.1983 17.6228 0.0000 -0.0000 0.0000 -95.5760 -26.4609 80.2093 48.0178 -52.1641 -24.5998 -0.0000 0.0000 -24.7906 38.2412 0.2697 0.2125 -7.1250 0.0000 -0.0000 9.2069 30.2540 -3.3529 0.0000 -0.0000 0.0000 60.7342 -19.5032 33.8068 -90.3102 59.9996 -60.2686 0.0000 -0.0000 -8.8608 -46.7997 0.7374 -0.7852 7.1250 -0.0000 -0.0000 -15.6241 -28.7384 -6.4069
